{"title":"Alles is liefde 2007 DVDrip Dutch Klam","uid":8365740,"size":2218492306,"categoryP":"video","categoryS":"movies","magnet":"?xt=urn:btih:7ad4a4c6ca88752d789c444a59662b928bb3ca33&amp;dn=Alles+is+liefde+2007+DVDrip+Dutch+Klam&amp;tr=udp%3A%2F%2Ftracker.openbittorrent.com%3A80&amp;tr=udp%3A%2F%2Fopen.demonii.com%3A1337&amp;tr=udp%3A%2F%2Ftracker.coppersurfer.tk%3A6969&amp;tr=udp%3A%2F%2Fexodus.desync.com%3A6969","seeders":2,"leechers":0,"uploader":"Klambake","files":-1,"time":1365761361,"description":"With: Michiel Romeyn, Carice van Houten and Wendy van Dijk\n\nNederlands gesproken,\nIn Alles Is Liefde draait alles om de liefde, in alle denkbare combinaties. Klaasje (Wendy van Dijk) is gescheiden van Dennis (Peter Paul Muller) nadat hij haar heeft bedrogen met de juf (Chantal Janzen) van hun zoontje. Hoewel Dennis haar terug wil, lijken zijn kansen verkeken als Klaasje een aantrekkelijke jonge minnaar tegenkomt (Valerio Zeno). Simone, de beste vriendin van Klaasje (Anneke Blok) is de spil van haar gezin dat ze met strakke schema's door het drukke dagelijkse leven leidt. Haar man Ted (Thomas Acda) voelt zich daardoor vaak buitengesloten en overbodig. Als hij wordt ontslagen als kraandrijver, durft hij het haar dan ook niet te vertellen. Badmeester Victor (Paul de Leeuw) verheugt zich op zijn aanstaande huwelijk met Kees, zijn grote liefde (Daan Schuurmans). Terwijl 5 december nadert en alle liefdeslijnen bij elkaar komen via de mysterieuze Sinterklaasfiguur Jan (Michiel Romeyn), lijken de liefdesperikelen te worden overwonnen...\n\nDutch spoken,\nLOVE IS ALL Klaasje has divorced Dennis, who cheated on her with a school teacher. Dennis would like her back, but when she moves in with a young lover it looks as if he has missed the boat...\n &lt;a href=&quot;\nhttp://www.imdb.com/title/tt0468644&quot; rel=&quot;nofollow&quot; target=&quot;_NEW&quot;&gt;\nhttp://www.imdb.com/title/tt0468644&lt;/a&gt;\t\n\n------------------------ Dutch Friends ------------------------\n---------------------------------------------------------------\n- Bezoek ook eens mijn vrienden op: &lt;a href=&quot; http://www.Film-Test.nl&quot; rel=&quot;nofollow&quot; target=&quot;_NEW&quot;&gt; http://www.Film-Test.nl&lt;/a&gt; --\n----- voor mijn Nederlandse Sync. ondertitels ---- en meer ----\n------- http://www.Film-Test.nl ---- Over Films en meer -------\n---------------------------------------------------------------\n\nGeneral:\n\nComplete name                    : Alles is liefdeAlles is liefde.avi\nFormat                           : AVI\nFormat/Info                      : Audio Video Interleave\nFile size                        : 2.07 GiB\nDuration                         : 1h 56mn\nOverall bit rate                 : 2 547 Kbps\n\nVideo:\n\nFormat                           : MPEG-4 Visual\nFormat profile                   : Simple@L3\nFormat settings, BVOP            : No\nFormat settings, QPel            : No\nFormat settings, GMC             : No warppoints\nFormat settings, Matrix          : Default (H.263)\nCodec ID                         : XVID\nCodec ID/Hint                    : XviD\nDuration                         : 1h 56mn\nBit rate                         : 2 088 Kbps\nWidth                            : 720 pixels\nHeight                           : 304 pixels\nDisplay aspect ratio             : 2.35:1\nFrame rate                       : 25.000 fps\nColor space                      : YUV\nChroma subsampling               : 4:2:0\nBit depth                        : 8 bits\nScan type                        : Progressive\nCompression mode                 : Lossy\nBits/(Pixel*Frame)               : 0.382\nStream size                      : 1.69 GiB (82%)\nWriting library                  : XviD 1.1.2 (UTC 2006-11-01)\n\nAudio:\n\nFormat                           : AC-3\nFormat/Info                      : Audio Coding 3\nMode extension                   : CM (complete main)\nCodec ID                         : 2000\nDuration                         : 1h 56mn\nBit rate mode                    : Constant\nBit rate                         : 448 Kbps\nChannel(s)                       : 6 channels\nChannel positions                : Front: L C R, Side: L R, LFE\nSampling rate                    : 48.0 KHz\nBit depth                        : 16 bits\nCompression mode                 : Lossy\nStream size                      : 372 MiB (18%)\nAlignment                        : Aligned on interleaves\nInterleave, duration             : 32 ms (0.80 video frame)\nInterleave, preload duration     : 288 ms","torrent":{"xt":"urn:btih:7ad4a4c6ca88752d789c444a59662b928bb3ca33","amp;dn":"Alles+is+liefde+2007+DVDrip+Dutch+Klam","amp;tr":["udp%3A%2F%2Ftracker.openbittorrent.com%3A80","udp%3A%2F%2Fopen.demonii.com%3A1337","udp%3A%2F%2Ftracker.coppersurfer.tk%3A6969","udp%3A%2F%2Fexodus.desync.com%3A6969"],"infoHash":"7ad4a4c6ca88752d789c444a59662b928bb3ca33","infoHashBuffer":{"type":"Buffer","data":[122,212,164,198,202,136,117,45,120,156,68,74,89,102,43,146,139,179,202,51]},"announce":[],"urlList":[]}}